<svg xmlns="http://www.w3.org/2000/svg" fill-rule="evenodd" viewBox="0 0 100 100">
    <path d="M85.87 19.05a1.49 1.49 0 0 0-.6-.13A5.12 5.12 0 0 1 80 13.5a1.5 1.5 0 0 0-1.5-1.5h-45a1.5 1.5 0 0 0-1.5 1.5V26H14.5a1.5 1.5 0 0 0-1.5 1.5v51a9.51 9.51 0 0 0 9.5 9.5h44a1.5 1.5 0 0 0 1.5-1.5V73h17.5a1.5 1.5 0 0 0 1.5-1.5v-51a1.5 1.5 0 0 0-1.13-1.45ZM84 21.83v46.53l-4-4.57V20.12a8.38 8.38 0 0 0 4 1.71ZM40.5 70a5.51 5.51 0 0 1-5.29-4h42.74l3.5 4ZM35 15h42v48H35ZM16 29h16v35.5a8.51 8.51 0 0 0 8.5 8.5H58v4H16Zm.18 51h42.53l4.38 5H22.5a6.51 6.51 0 0 1-6.32-5ZM65 82.63l-4-4.57V73h4Z"></path>
    <path d="M44.5 52h23a1.5 1.5 0 0 0 1.5-1.5v-23a1.5 1.5 0 0 0-1.5-1.5h-23a1.5 1.5 0 0 0-1.5 1.5v23a1.5 1.5 0 0 0 1.5 1.5ZM46 29h20v20H46Z"></path>
</svg>