<svg xmlns="http://www.w3.org/2000/svg" fill-rule="evenodd" viewBox="0 0 100 100">
    <path d="M20.961 55.588h12.802V42.787H20.961v12.801zm3-9.801h6.802v6.802h-6.802v-6.802zm19.861 9.801h12.802V42.787H43.822v12.801zm3-9.801h6.802v6.802h-6.802v-6.802zm19.127 9.831H78.81V42.757H65.949v12.861zm3.059-9.802h6.742v6.742h-6.742v-6.742zM20.961 77.915h12.802V65.113H20.961v12.802zm3-9.802h6.802v6.802h-6.802v-6.802zm19.861 9.802h12.802V65.113H43.822v12.802zm3-9.802h6.802v6.802h-6.802v-6.802zm19.127 9.832H78.81V65.083H65.949v12.862zm3.059-9.802h6.742v6.742h-6.742v-6.742z"></path>
    <path d="M79.248 13.621v-2.008c0-3.294-2.68-5.974-5.974-5.974S67.3 8.319 67.3 11.613v1.922H56.108v-1.922a5.95 5.95 0 0 0-5.944-5.944 5.95 5.95 0 0 0-5.944 5.944v1.952H33v-1.952c0-3.278-2.667-5.944-5.944-5.944s-5.944 2.667-5.944 5.944v2.008H9.645v81.064h81.064V13.621H79.248zm-8.889-2.008c0-1.607 1.308-2.915 2.915-2.915s2.915 1.308 2.915 2.915v8.31c0 1.607-1.308 2.915-2.915 2.915s-2.915-1.308-2.915-2.915v-8.31zm-23.139 0c0-1.624 1.321-2.944 2.944-2.944s2.944 1.321 2.944 2.944v8.31a2.947 2.947 0 0 1-2.944 2.944 2.947 2.947 0 0 1-2.944-2.944v-8.31zm-23.109 0c0-1.624 1.321-2.944 2.944-2.944S30 9.989 30 11.613v8.31c0 1.624-1.321 2.944-2.944 2.944s-2.944-1.321-2.944-2.944l-.001-8.31zm63.598 80.072H12.645V16.621h8.466v3.302c0 3.278 2.667 5.944 5.944 5.944S33 23.201 33 19.923v-3.358h11.22v3.358c0 3.278 2.667 5.944 5.944 5.944s5.944-2.667 5.944-5.944v-3.328h11.191v3.328c0 3.294 2.68 5.974 5.974 5.974s5.974-2.68 5.974-5.974v-3.302h8.461l.001 75.064z"></path>
</svg>